Coordinates
version=1
nRows=17
nColumns=33
inDegrees=yes

Units are S.I. units (second, meters, Newtons, ...)
Angles are in degrees.

endheader
time	ground_thorax_rot_x	ground_thorax_rot_y	ground_thorax_rot_z	ground_thorax_tx	ground_thorax_ty	ground_thorax_tz	clav_prot_r	clav_elev_r	scapula_abduction_r	scapula_elevation_r	scapula_upward_rot_r	scapula_winging_r	shoulder_elv_r	plane_of_elev_r	axial_rot_r	elbow_flexion_r	pro_sup_r	wrist_flex_r	wrist_dev_r	clav_prot_l	clav_elev_l	scapula_abduction_l	scapula_elevation_l	scapula_upward_rot_l	scapula_winging_l	shoulder_elv_l	plane_of_elev_l	axial_rot_l	elbow_flexion_l	pro_sup_l	wrist_flex_l	wrist_dev_l
      9.14000000	    -90.00000000	     90.00000000	    -90.00000000	     11.58912117	    793.28523432	    -33.14953338	     26.82840021	     37.31176361	     45.00000000	     45.00000000	      9.83565423	   2127.57264607	   2988.40697123	     30.22221188	    -53.82623164	   2519.80033081	    172.59571751	     11.52838997	     14.16584175	    -45.00000000	     30.27016396	     43.15703559	    -21.49379586	     45.00000000	   2629.16431669	  -5454.06396183	    141.69987642	     53.74658116	   1429.17406949	   -313.15625523	     13.10339956	    -14.59738912
      9.15000000	    -90.00000000	     90.00000000	    -90.00000000	     13.28430364	    791.70077610	    -32.97069781	     26.73086428	     37.34491751	     45.00000000	     45.00000000	      9.75140923	   2127.33271391	   2988.42880037	     30.30345306	    -53.67801927	   2519.92295823	    172.78498095	     11.44649150	     14.12804905	    -45.00000000	     30.54984573	     43.18411071	    -21.86762862	     45.00000000	   2629.44104870	  -5454.10994371	    141.55324660	     53.63597430	   1429.17920308	   -313.28283151	     13.04866566	    -14.52016355
      9.16000000	    -90.00000000	     90.00000000	    -90.00000000	     14.95183758	    790.08837821	    -32.79031196	     26.64866369	     37.38485957	     45.00000000	     45.00000000	      9.74357012	   2127.16524332	   2988.39185909	     30.38200436	    -53.58207408	   2519.87899683	    172.92980881	     11.43231475	     14.08498597	    -45.00000000	     30.97989134	     43.27761023	    -22.22646531	     45.00000000	   2629.55918584	  -5454.14078427	    141.56443758	     53.49858777	   1429.10502686	   -313.48342508	     12.98035640	    -14.42964188
      9.17000000	    -90.00000000	     90.00000000	    -90.00000000	     16.60890262	    788.50098050	    -32.62225685	     26.55932727	     37.43141475	     45.00000000	     45.00000000	      9.75722112	   2126.99262894	   2988.44074526	     30.44285847	    -53.37858292	   2519.98318397	    173.06188159	     11.36925498	     14.05283142	    -45.00000000	     31.55553257	     43.39834759	    -22.60210920	     45.00000000	   2629.64826669	  -5454.25306618	    141.57308346	     53.31019264	   1429.09927796	   -313.68906510	     12.96741087	    -14.36241933
      9.18000000	    -90.00000000	     90.00000000	    -90.00000000	     18.27892598	    786.94099780	    -32.45762228	     26.47500728	     37.47643592	     45.00000000	     45.00000000	      9.79772933	   2126.78724444	   2988.46520928	     30.53009546	    -53.19923724	   2520.02017261	    173.14340274	     11.32929191	     13.99045503	    -45.00000000	     32.04137398	     43.53909059	    -22.94754982	     45.00000000	   2629.78948441	  -5454.25816631	    141.47682067	     53.08917029	   1429.22953275	   -313.82930860	     12.89914425	    -14.25187673
      9.19000000	    -90.00000000	     90.00000000	    -90.00000000	     19.93599127	    785.41965871	    -32.29572953	     26.38349539	     37.53070141	     45.00000000	     45.00000000	      9.72325648	   2126.61551695	   2988.36664953	     30.62898462	    -52.98590620	   2519.98841389	    173.18192881	     11.30563643	     13.93207449	    -45.00000000	     32.53066014	     43.65302184	    -23.26252971	     45.00000000	   2629.96590518	  -5454.26121052	    141.37445725	     52.80863657	   1429.29528079	   -313.85349905	     12.88283171	    -14.12927558
      9.20000000	    -90.00000000	     90.00000000	    -90.00000000	     21.56592546	    783.93695763	    -32.13745829	     26.28893708	     37.60181143	     45.00000000	     45.00000000	      9.74634747	   2126.44134091	   2988.34331873	     30.72676216	    -52.72216638	   2520.02462112	    173.19601100	     11.26149529	     13.88138155	    -45.00000000	     32.94918035	     43.79888401	    -23.58682709	     45.00000000	   2630.09420387	  -5454.30229827	    141.30578243	     52.52173923	   1429.40472189	   -313.78752179	     12.87736685	    -14.02065712
      9.21000000	    -90.00000000	     90.00000000	    -90.00000000	     23.11846607	    782.51058152	    -31.99513307	     26.19419618	     37.66388135	     45.00000000	     45.00000000	      9.77191945	   2126.26110797	   2988.33074775	     30.82551973	    -52.43501993	   2520.06300548	    173.17608837	     11.21558276	     13.82812854	    -45.00000000	     33.40378558	     43.93145715	    -23.89477747	     45.00000000	   2630.20933362	  -5454.33523238	    141.23639891	     52.18446698	   1429.54429007	   -313.63690195	     12.88667131	    -13.94903826
      9.22000000	    -90.00000000	     90.00000000	    -90.00000000	     24.59907100	    781.12629541	    -31.86283783	     26.09990457	     37.72519026	     45.00000000	     45.00000000	      9.80775195	   2126.07772461	   2988.31671188	     30.92668070	    -52.12395429	   2520.09419251	    173.12458847	     11.17206550	     13.77087513	    -45.00000000	     33.79440298	     44.03923352	    -24.17392607	     45.00000000	   2630.31093866	  -5454.35367458	    141.17461734	     51.86234212	   1429.66586506	   -313.44494283	     12.88773895	    -13.89221349
      9.23000000	    -90.00000000	     90.00000000	    -90.00000000	     26.04372922	    779.75716040	    -31.72417228	     25.99938467	     37.78454053	     45.00000000	     45.00000000	      9.80325172	   2125.87871309	   2988.30656611	     31.04576636	    -51.76057451	   2520.18468322	    173.05698036	     11.10046745	     13.72053665	    -45.00000000	     34.08443247	     44.12580268	    -24.51311834	     45.00000000	   2630.53732556	  -5454.37138890	    141.04456149	     51.66181769	   1429.76470313	   -313.33666984	     12.84100321	    -13.83266525
      9.24000000	    -90.00000000	     90.00000000	    -90.00000000	     27.41231188	    778.44975054	    -31.61475768	     25.90962864	     37.84634772	     45.00000000	     45.00000000	      9.90034961	   2125.71133426	   2988.29267908	     31.15374116	    -51.43512381	   2520.16889792	    172.95050831	     11.07748990	     13.64965853	    -45.00000000	     34.53741787	     44.23850327	    -24.76164051	     45.00000000	   2630.55851420	  -5454.39583364	    141.04718660	     51.40075508	   1429.81920424	   -313.24239356	     12.77841203	    -13.75769698
      9.25000000	    -90.00000000	     90.00000000	    -90.00000000	     28.74492696	    777.16823415	    -31.50457551	     25.81318684	     37.89303196	     45.00000000	     45.00000000	      9.88416727	   2125.44792873	   2988.28167663	     31.34252056	    -51.02545909	   2520.31183647	    172.84748880	     10.99466400	     13.54461042	    -45.00000000	     34.70666468	     44.30907540	    -25.11943821	     45.00000000	   2630.96163362	  -5454.29512791	    140.75232912	     51.18999385	   1429.95824551	   -313.24557904	     12.59291482	    -13.62594466
      9.26000000	    -90.00000000	     90.00000000	    -90.00000000	     30.04561896	    775.92657565	    -31.40507614	     25.71990775	     37.96867277	     45.00000000	     45.00000000	      9.99496617	   2125.35241721	   2988.25172248	     31.38665566	    -50.69808108	   2520.26142887	    172.69540586	     10.97851520	     13.51178943	    -45.00000000	     35.25507394	     44.45247003	    -25.33164197	     45.00000000	   2630.75290452	  -5454.45158319	    140.96264449	     51.01205107	   1429.87408664	   -313.29842779	     12.57913177	    -13.57623293
      9.27000000	    -90.00000000	     90.00000000	    -90.00000000	     31.31136866	    774.72974211	    -31.31620144	     25.61934565	     38.03431568	     45.00000000	     45.00000000	     10.07606055	   2125.22292599	   2988.24349231	     31.47240121	    -50.32125012	   2520.28483372	    172.53044459	     10.93184902	     13.47773134	    -45.00000000	     35.56268306	     44.54375319	    -25.58412658	     45.00000000	   2630.88364422	  -5454.45392610	    140.89131860	     50.86275849	   1429.83564839	   -313.42249604	     12.57668042	    -13.53246254
      9.28000000	    -90.00000000	     90.00000000	    -90.00000000	     32.51868461	    773.60099708	    -31.25730420	     25.52319689	     38.09976863	     45.00000000	     45.00000000	     10.13590628	   2125.05795773	   2988.22859157	     31.58273036	    -49.95471520	   2520.33562277	    172.33878325	     10.87758272	     13.42711331	    -45.00000000	     35.92796845	     44.64207257	    -25.84519637	     45.00000000	   2630.99418409	  -5454.45624862	    140.82676880	     50.63114900	   1429.85449918	   -313.56461024	     12.50887773	    -13.46256794
      9.29000000	    -90.00000000	     90.00000000	    -90.00000000	     33.66008551	    772.54590643	    -31.23214330	     25.43202515	     38.16510278	     45.00000000	     45.00000000	     10.21808843	   2124.90299624	   2988.21761229	     31.68553174	    -49.61218096	   2520.37627378	    172.10690563	     10.82970925	     13.37828549	    -45.00000000	     36.27159747	     44.75457841	    -26.07757231	     45.00000000	   2631.04266822	  -5454.46805491	    140.78544566	     50.39496842	   1429.91608251	   -313.69789432	     12.42696938	    -13.38902695
      9.30000000	    -90.00000000	     90.00000000	    -90.00000000	     34.73701884	    771.55981320	    -31.23939992	     25.34241669	     38.22578314	     45.00000000	     45.00000000	     10.28550012	   2124.75638724	   2988.20054204	     31.78016342	    -49.27662468	   2520.41594632	    171.83599596	     10.77837008	     13.34401180	    -45.00000000	     36.58124687	     44.84271242	    -26.28914800	     45.00000000	   2631.10657831	  -5454.45852035	    140.73978858	     50.15110203	   1429.92628471	   -313.79984808	     12.38439125	    -13.32961309
